HIERARCHY
ROOT RootJoint
{
    OFFSET   0.000000   0.000000   0.000000
    CHANNELS 6 Xposition Yposition Zposition Xrotation Yrotation Zrotation
    JOINT lHip
    {
        OFFSET   0.100000  -0.051395   0.000000
        CHANNELS 3 Xrotation Yrotation Zrotation
        JOINT lKnee
        {
            OFFSET   0.000000  -0.410000   0.000000
            CHANNELS 3 Xrotation Yrotation Zrotation
            JOINT lAnkle
            {
                OFFSET   0.000000  -0.390000   0.000000
                CHANNELS 3 Xrotation Yrotation Zrotation
                JOINT lToeJoint
                {
                    OFFSET   0.000000  -0.050000   0.130000
                    CHANNELS 3 Xrotation Yrotation Zrotation
                    End Site
                    {
                        OFFSET   0.010000   0.002000   0.060000
                    }
                }
            }
        }
    }
    JOINT rHip
    {
        OFFSET  -0.100000  -0.051395   0.000000
        CHANNELS 3 Xrotation Yrotation Zrotation
        JOINT rKnee
        {
            OFFSET   0.000000  -0.410000   0.000000
            CHANNELS 3 Xrotation Yrotation Zrotation
            JOINT rAnkle
            {
                OFFSET   0.000000  -0.390000   0.000000
                CHANNELS 3 Xrotation Yrotation Zrotation
                JOINT rToeJoint
                {
                    OFFSET   0.000000  -0.050000   0.130000
                    CHANNELS 3 Xrotation Yrotation Zrotation
                    End Site
                    {
                        OFFSET  -0.010000   0.002000   0.060000
                    }
                }
            }
        }
    }
    JOINT pelvis_lowerback
    {
        OFFSET   0.000000   0.093605   0.000000
        CHANNELS 3 Xrotation Yrotation Zrotation
        JOINT lowerback_torso
        {
            OFFSET   0.000000   0.100000   0.000000
            CHANNELS 3 Xrotation Yrotation Zrotation
            JOINT torso_head
            {
                OFFSET   0.000000   0.282350   0.000000
                CHANNELS 3 Xrotation Yrotation Zrotation
                End Site
                {
                    OFFSET   0.000000   0.192650   0.000000
                }
            }
            JOINT lTorso_Clavicle
            {
                OFFSET   0.001000   0.157500   0.000000
                CHANNELS 3 Xrotation Yrotation Zrotation
                JOINT lShoulder
                {
                    OFFSET   0.117647   0.000000   0.000000
                    CHANNELS 3 Xrotation Yrotation Zrotation
                    JOINT lElbow
                    {
                        OFFSET   0.245000   0.000000   0.000000
                        CHANNELS 3 Xrotation Yrotation Zrotation
                        JOINT lWrist
                        {
                            OFFSET   0.240000   0.000000   0.000000
                            CHANNELS 3 Xrotation Yrotation Zrotation
                            End Site
                            {
                                OFFSET   0.116353  -0.002500   0.000000
                            }
                        }
                    }
                }
            }
            JOINT rTorso_Clavicle
            {
                OFFSET  -0.001000   0.157500   0.000000
                CHANNELS 3 Xrotation Yrotation Zrotation
                JOINT rShoulder
                {
                    OFFSET  -0.117647   0.000000   0.000000
                    CHANNELS 3 Xrotation Yrotation Zrotation
                    JOINT rElbow
                    {
                        OFFSET  -0.245000   0.000000   0.000000
                        CHANNELS 3 Xrotation Yrotation Zrotation
                        JOINT rWrist
                        {
                            OFFSET  -0.240000   0.000000   0.000000
                            CHANNELS 3 Xrotation Yrotation Zrotation
                            End Site
                            {
                                OFFSET  -0.116353  -0.002500   0.000000
                            }
                        }
                    }
                }
            }
        }
    }
}
MOTION
Frames: 8
Frame Time:   0.010000
  0.000000   0.000000   0.000000   0.000000   0.000000   0.000000   0.000000   0.000000   0.000000   0.000000   0.000000   0.000000   0.000000   0.000000   0.000000   0.000000   0.000000   0.000000   0.000000   0.000000   0.000000   0.000000   0.000000   0.000000   0.000000   0.000000   0.000000   0.000000   0.000000   0.000000   0.000000   0.000000   0.000000   0.000000   0.000000   0.000000   0.000000   0.000000   0.000000   0.000000   0.000000   0.000000   0.000000   0.000000   0.000000   0.000000   0.000000   0.000000   0.000000   0.000000   0.000000   0.000000   0.000000   0.000000   0.000000   0.000000   0.000000   0.000000   0.000000   0.000000   0.000000   0.000000   0.000000
  1.000000   1.000000   1.000000   0.578334 -30.895493   3.864834 -26.594390  11.828427   1.344623  48.893620   2.025192  10.037525  -3.396869  -1.396557  -1.802896  -0.646195  -0.042151  -0.823562 -21.120565 -17.757999   0.123505  38.658473  -2.509423  -9.943340   1.979960  -1.404140   4.020568  -0.821617  -0.811967   0.494793   2.241197   2.142067   0.921347  12.781059   0.012203   4.497922  22.485593   0.904512  -3.088184   3.535992  -1.383016 -24.051569  15.485906 -38.529626 -60.261426   0.940289 -45.743824   8.855582   7.746264   0.771068  -6.158716  -3.399546  -0.564309  27.591102  25.105867  37.239722  55.598977   0.218125  44.476524  -6.684001  12.042532   4.404009  -4.196729
  1.000000   1.000000   1.000000  -4.237291 -41.398793   3.243800 -29.817415  17.716484   3.197974  51.436374   5.347569  11.102409  -1.625561  -1.112908  -1.606403   1.427148  -1.816958   4.474620 -19.727499 -15.772273   1.425036  44.280179  -0.916073  -9.617852  -0.023423  -0.030737   4.347647  -3.017257  -1.839422   2.040403  -1.125901   3.558222   3.874782  15.971430   0.914882   4.011999  25.897995   1.315510   1.068800   5.198562  -1.612192 -27.738252  16.802265 -41.141099 -61.606119   0.853104 -47.816117   9.459609  11.261946   2.748586  -4.275693  -0.394270   4.907234  28.342835  23.772505  40.534829  57.100746  -1.048742  44.922656  -4.789753  12.032440   0.619297  -2.840528
  1.000000   1.000000   1.000000  -8.722459 -40.739621   0.038782 -28.877755  18.995276   2.039432  51.858113   1.874153  13.306510  -2.522183  -0.170639  -4.829936   1.426944  -1.365569   2.589386 -20.793303 -18.928081   0.721020  44.408382  -4.545728  -9.728976  -1.025246  -1.537559   2.442499  -1.604611  -2.458172   3.853652  -1.622635   2.428390   2.841293  14.159118   2.159295   4.380703  25.268134   1.474341   0.094363   7.472338  -4.130572 -25.863123  17.718723 -41.546286 -61.007819   4.944332 -46.827216  13.618601  13.373801  -1.062023  -6.410410  -2.881721   2.486690  27.479948  23.085451  40.989167  59.108154  -1.426624  43.636497  -3.914057  10.416328   4.229794  -2.949883
  1.000000   1.000000   1.000000  -0.376530 -31.944690   4.590013 -32.444240  18.464338   2.866743  51.215284   5.925112  11.926858  -2.877662   1.997744  -2.762357  -0.015131  -3.851465   4.904923 -20.261525 -18.927263  -1.221420  45.447727  -3.142296  -8.661173  -0.740772  -1.672205   4.091142  -3.129134  -3.048108   2.981455  -1.262997   1.690492   1.858861  16.109566   0.891854   3.831051  26.871914   3.750029   1.497766   7.653248  -2.964871 -26.728338  18.555619 -39.077055 -61.997528   2.725571 -46.471809   9.719112  12.393575   2.812737  -6.949211  -0.310956   3.169938  27.426798  24.280736  40.722792  58.278936  -2.604781  44.927403  -4.176035  11.662662   2.863490  -2.937091
  1.000000   1.000000   1.000000  -7.621660 -38.977607   0.935454 -29.363922  19.234955  -0.168058  50.072133   3.540412  12.262315  -2.978041  -0.063109  -1.458400   0.713873  -2.845515   3.405487 -21.737106 -18.073785   0.378943  44.804167  -2.424714 -10.613619   0.805939  -2.211609   5.418643  -3.461007  -2.272258   0.212125  -1.425948   2.797744   1.348353  14.980708   1.500043   6.047136  26.117315   4.250623  -0.920179   6.697322  -2.757758 -27.132418  15.945617 -40.935840 -62.790463   3.244078 -47.300269  10.063380  12.501938   1.008568  -6.608363  -1.607162   2.987359  29.415679  23.499445  40.335240  58.249594  -3.010605  44.349109  -5.371465  10.106009   1.088901  -2.682858
  1.000000   1.000000   1.000000  -1.945741 -43.179493   0.850928 -30.767125  20.408365   1.452209  53.257527   5.003457  11.589425  -1.269625  -0.893093   1.143676   1.814952  -2.917788   6.351085 -23.037947 -20.327745   1.339616  44.208582  -1.978764 -10.335054   1.015650  -3.699132   1.360473  -2.372034  -4.982241   2.461789  -0.455847   1.943579   1.308951  18.109551   3.708517   2.734954  26.232556   1.414149   0.218563   6.914922  -2.479340 -26.774467  15.551574 -40.586913 -62.061043   3.366456 -49.218899  12.081839  12.574330   2.601008  -3.580075   0.723551   3.017490  26.955218  24.448886  41.182597  57.642884   0.071840  45.748133  -6.965081   8.497830   3.411192  -3.810617
  1.000000   1.000000   1.000000  -7.571958 -40.093560   1.072830 -30.248431  19.522346   3.513866  51.459048   3.436937  13.178675  -2.426148   1.559297  -1.229912   2.001195  -1.323485   3.878498 -21.463546 -19.373110  -1.669301  45.401498  -3.071210 -10.936003  -0.147715  -1.719587   4.967397  -2.664105  -1.522053   1.775474  -0.296911   1.709029   2.622790  14.644269   1.175662   4.863589  26.180982   1.794821   1.287602   9.030773  -5.453361 -27.483556  16.361468 -39.124030 -62.286432   4.242262 -47.133950  10.615043  10.791377   0.435905  -4.758143  -0.520729   3.045597  28.642390  24.822730  40.124535  57.837396   1.844799  44.898980  -9.954796  11.291794   0.457585   0.253623
